<svg id="slogan" xmlns="http://www.w3.org/2000/svg" width="103.344" height="13.813" viewBox="0 0 103.344 13.813">
  <defs>
    <style>
      .cls-1 {
        fill: #777;
        fill-rule: evenodd;
        opacity: 0.8;
      }
    </style>
  </defs>
  <path id="slogan-2" data-name="slogan" class="cls-1" d="M594.233,36.019a5.207,5.207,0,0,1,5.093-5.5,4.2,4.2,0,0,1,3.883,2.014l-1.14.857a3.012,3.012,0,0,0-2.785-1.487c-2.054,0-3.559,1.727-3.559,4.1,0,2.089,1.265,3.622,3.207,3.622a3.181,3.181,0,0,0,3.279-2.555H599.3l0.211-1.337h4.3c-0.113,3.126-1.815,5.26-4.925,5.26C596.1,40.994,594.233,38.92,594.233,36.019Zm10.391,1.8a3.248,3.248,0,0,1,3.235-3.412,3.043,3.043,0,0,1,3.024,3.187,3.226,3.226,0,0,1-3.235,3.4A3.048,3.048,0,0,1,604.624,37.823Zm4.825-.24a1.666,1.666,0,0,0-1.632-1.879,1.894,1.894,0,0,0-1.759,2.149,1.67,1.67,0,0,0,1.632,1.864A1.881,1.881,0,0,0,609.449,37.583Zm2.571-.932h2.912l-0.225,1.307h-2.9Zm5.188,4.208h-1.449l1.689-10.22h2.124a3.341,3.341,0,0,1,3.63,3.577c0,2.57-1.632,4.208-4.376,4.208h-1.209Zm1.647-3.772a2.573,2.573,0,0,0,2.855-2.871,2.02,2.02,0,0,0-2.264-2.239h-0.775l-0.829,5.109h1.013Zm6.452-7.078H626.7l-0.928,5.666a2.2,2.2,0,0,1,1.969-1.263c1.28,0,2.1,1.127,1.815,2.885l-0.338,1.984c-0.042.3,0.029,0.437,0.268,0.437h0.478l-0.183,1.142h-0.6c-1.055,0-1.52-.481-1.322-1.654l0.3-1.834c0.167-1.037-.2-1.622-1.028-1.622a1.6,1.6,0,0,0-1.632,1.622l-0.577,3.487h-1.392ZM634,39.761a2.256,2.256,0,0,0,1.646-.662l0.83,0.947a3.44,3.44,0,0,1-2.49.947,3,3,0,0,1-3.152-3.171,3.279,3.279,0,0,1,3.264-3.412c2,0,3.053,1.608,2.8,3.787h-4.642A1.642,1.642,0,0,0,634,39.761Zm1.561-2.585a1.44,1.44,0,0,0-1.5-1.562,1.756,1.756,0,0,0-1.759,1.562h3.264Zm3.219-2.63h1.392L639.9,35.839a2.068,2.068,0,0,1,1.829-1.413,1.451,1.451,0,0,1,.829.226L642.027,36a1.121,1.121,0,0,0-.675-0.18c-0.886,0-1.492.555-1.731,1.983l-0.492,3.051h-1.393ZM567,39.235l1.224-.72a1.513,1.513,0,0,0,1.421,1.082c0.76,0,1.182-.376,1.365-1.488l1.238-7.47h1.449L572.428,38.3c-0.31,1.894-1.252,2.69-2.814,2.69A2.689,2.689,0,0,1,567,39.235Zm7.242-1.337,0.548-3.352h1.394L575.6,38.018c-0.211,1.232.281,1.683,1.1,1.683,0.844,0,1.252-.437,1.435-1.548l0.59-3.607h1.394l-0.62,3.787c-0.295,1.789-1.238,2.661-2.869,2.661C574.929,40.994,573.916,39.851,574.239,37.9Zm6.172,1.744,1-.722a1.651,1.651,0,0,0,1.5.887c0.69,0,.957-0.27.957-0.677s-0.309-.525-1.2-0.977a2.1,2.1,0,0,1-1.407-1.894,1.84,1.84,0,0,1,2.054-1.849,2.354,2.354,0,0,1,1.97.947l-0.915.812a1.22,1.22,0,0,0-1.069-.6,0.635,0.635,0,0,0-.746.587c0,0.377.3,0.557,0.971,0.887,0.929,0.466,1.674.9,1.674,2.043,0,1.112-.774,1.909-2.321,1.909A2.722,2.722,0,0,1,580.411,39.641Zm6.215-3.847,0.2-1.248H587.7l0.548-3.291h1.394l-0.548,3.291h1.518L590.4,35.794h-1.5L588.4,38.755c-0.127.721,0.07,0.947,0.45,0.947a1.1,1.1,0,0,0,.717-0.27l0.549,1.022a2.035,2.035,0,0,1-1.476.526c-1.057,0-1.9-.556-1.619-2.284l0.479-2.9h-0.873Zm60.616-5.156h1.449L647,40.858h-1.449Zm2.08,5.156,0.2-1.248h0.871l0.549-3.291h1.393l-0.548,3.291H653.3l-0.211,1.248h-1.5L651.1,38.755c-0.126.721,0.07,0.947,0.451,0.947a1.109,1.109,0,0,0,.717-0.27l0.548,1.022a2.035,2.035,0,0,1-1.476.526c-1.056,0-1.9-.556-1.619-2.284l0.479-2.9h-0.873Zm4.415,4.148a0.932,0.932,0,1,1,.928,1.007A0.956,0.956,0,0,1,653.737,39.942Zm1.688-9.3H657L655.523,37.7H654.44Z" transform="translate(-567 -27.188)"/>
  <path id="_" data-name="™" class="cls-1" d="M665.328,32.223h1.078v-3.4l1.387,2.2h0.1l1.388-2.2v3.4h1.078V27.194h-1.176l-1.322,2.122-1.323-2.122h-1.208v5.029Zm-3.706,0h1.143V28.207h1.5V27.194H660.12v1.012h1.5v4.016Z" transform="translate(-567 -27.188)"/>
</svg>
